<?xml version="1.0" standalone="no"?>
<!DOCTYPE svg PUBLIC "-//W3C//DTD SVG 20010904//EN"
 "http://www.w3.org/TR/2001/REC-SVG-20010904/DTD/svg10.dtd">
 <!--<svg version="1.0" xmlns="http://www.w3.org/2000/svg"
 width="564.000000pt" height="564.000000pt" viewBox="0 0 564.000000 564.000000"
 preserveAspectRatio="xMidYMid meet">
-->
<svg version="1.0" xmlns="http://www.w3.org/2000/svg"
 width="50px" height="50px" viewBox="0 0 550 550"
 preserveAspectRatio="xMidYMid meet">
<metadata>
Created by potrace 1.16, written by Peter Selinger 2001-2019
</metadata>
<g transform="translate(0.000000,564.000000) scale(0.100000,-0.100000)"
fill="#000000" stroke="none">
<path d="M2663 5406 c-16 -12 -28 -14 -48 -6 -37 14 -78 12 -101 -5 -14 -10
-34 -12 -71 -8 -40 4 -59 2 -78 -11 -20 -13 -37 -16 -66 -11 -30 5 -47 2 -75
-14 -22 -13 -52 -21 -83 -21 -35 0 -53 -5 -66 -20 -14 -15 -31 -20 -71 -20
-42 0 -56 -5 -75 -25 -18 -19 -34 -25 -66 -25 -33 0 -50 -7 -76 -30 -25 -22
-45 -30 -72 -30 -28 0 -44 -7 -65 -30 -20 -21 -43 -33 -76 -39 -27 -5 -53 -17
-61 -28 -24 -36 -32 -40 -72 -47 -32 -5 -46 -13 -61 -38 -14 -24 -31 -35 -62
-43 -33 -8 -49 -19 -67 -47 -16 -25 -32 -38 -46 -38 -29 0 -71 -34 -78 -63 -4
-15 -20 -27 -49 -37 -32 -11 -48 -24 -63 -53 -12 -22 -35 -45 -55 -55 -20 -10
-43 -33 -55 -55 -11 -21 -33 -44 -49 -53 -34 -17 -55 -42 -56 -66 0 -10 -18
-30 -40 -44 -28 -19 -43 -38 -52 -66 -7 -25 -22 -45 -44 -58 -33 -21 -44 -38
-44 -71 0 -11 -17 -36 -39 -57 -24 -23 -41 -50 -45 -71 -4 -21 -18 -45 -37
-60 -20 -18 -32 -38 -36 -66 -3 -23 -18 -54 -35 -73 -19 -22 -28 -44 -28 -66
0 -23 -9 -44 -30 -67 -22 -25 -30 -44 -30 -72 0 -25 -9 -50 -25 -71 -18 -24
-25 -45 -25 -79 0 -25 -5 -49 -11 -53 -21 -13 -38 -70 -30 -100 6 -22 2 -36
-16 -63 -24 -35 -29 -75 -14 -100 7 -10 3 -24 -10 -43 -15 -21 -20 -41 -18
-85 1 -32 -4 -73 -12 -90 -11 -27 -11 -39 -1 -67 11 -30 11 -40 -3 -67 -11
-21 -15 -42 -10 -63 9 -41 9 -85 0 -117 -4 -18 -1 -39 10 -62 13 -27 14 -40 6
-56 -15 -27 -14 -61 3 -93 10 -19 13 -45 9 -80 -4 -43 -2 -58 14 -77 17 -21
18 -30 10 -62 -8 -33 -6 -44 13 -76 16 -26 22 -51 21 -81 -2 -33 4 -52 23 -76
16 -22 23 -41 19 -54 -8 -31 4 -68 28 -91 14 -13 21 -34 23 -65 2 -33 10 -54
28 -74 16 -17 28 -43 31 -71 4 -33 14 -52 36 -73 22 -20 31 -38 31 -60 0 -21
10 -40 35 -65 19 -19 35 -45 35 -57 0 -28 34 -83 57 -90 11 -4 24 -25 33 -53
12 -37 22 -51 47 -63 21 -9 33 -22 33 -35 0 -32 37 -84 64 -91 17 -4 29 -19
41 -51 14 -37 25 -48 56 -61 23 -9 39 -22 39 -31 0 -27 30 -62 66 -77 20 -8
39 -27 49 -47 15 -32 34 -47 78 -61 9 -3 26 -21 37 -39 20 -34 56 -57 89 -57
10 0 24 -14 34 -34 13 -27 26 -38 59 -47 26 -8 54 -26 71 -45 18 -22 41 -36
65 -40 22 -4 48 -20 68 -41 23 -24 40 -33 65 -33 24 0 42 -9 65 -31 24 -24 44
-32 75 -35 29 -2 50 -11 69 -29 21 -20 38 -27 67 -27 23 0 46 -7 58 -18 28
-26 66 -39 96 -33 17 3 39 -4 65 -22 31 -21 46 -25 76 -21 27 5 46 1 73 -15
26 -16 46 -20 75 -16 27 3 51 -1 79 -15 34 -17 46 -18 75 -8 29 9 39 8 60 -5
19 -13 37 -15 68 -11 66 9 71 9 105 -5 26 -11 39 -11 67 -1 28 10 44 11 76 1
33 -10 48 -10 75 0 21 7 53 9 84 5 38 -5 57 -3 75 9 18 12 37 15 75 10 38 -4
57 -2 76 11 20 13 37 15 71 10 38 -5 51 -3 77 16 23 18 42 23 77 21 35 -1 53
4 75 21 21 16 39 21 70 19 33 -2 49 3 72 23 20 17 43 26 64 26 35 0 99 32 99
50 0 5 18 10 40 10 32 0 48 7 79 35 27 25 48 35 71 35 24 0 40 9 64 35 23 24
41 35 61 35 20 0 39 11 64 39 21 22 50 41 68 45 30 7 83 56 83 77 0 5 11 9 24
9 28 0 86 45 86 66 0 7 21 24 48 36 31 15 51 33 60 53 9 20 29 38 55 51 31 15
45 29 53 53 8 23 23 40 48 53 26 14 43 32 56 63 10 24 27 46 39 50 27 8 61 52
61 80 0 14 13 30 38 46 28 18 39 33 46 65 7 30 18 47 38 59 29 17 48 50 48 85
0 10 16 34 35 53 27 27 35 43 35 71 0 26 6 40 23 51 28 18 47 56 47 92 0 16
12 39 27 55 21 22 28 39 28 73 1 33 8 52 25 70 19 20 25 37 25 73 0 34 6 56
23 77 18 23 23 39 19 70 -3 28 2 50 16 73 15 26 18 44 14 82 -4 35 -2 52 8 60
21 17 28 68 15 100 -10 24 -9 33 4 52 17 25 21 84 7 107 -6 10 -4 25 5 42 17
34 18 91 2 107 -9 9 -8 21 2 51 8 24 10 50 5 68 -4 15 -7 57 -6 92 1 44 -3 71
-14 88 -13 20 -14 30 -5 58 12 37 5 78 -16 96 -11 9 -13 24 -8 61 6 41 3 54
-14 78 -15 20 -21 41 -20 79 1 40 -3 56 -20 74 -16 17 -22 36 -22 69 0 35 -6
54 -25 76 -18 22 -25 42 -25 72 0 34 -6 47 -30 70 -23 22 -30 37 -30 67 0 30
-7 46 -29 67 -20 19 -31 42 -36 72 -5 34 -14 50 -41 70 -25 20 -34 34 -34 57
0 22 -10 40 -40 67 -22 20 -40 46 -40 58 0 24 -46 82 -65 82 -7 0 -19 19 -27
42 -9 29 -24 50 -48 66 -19 13 -39 35 -44 50 -12 36 -45 72 -68 72 -11 0 -26
17 -40 48 -18 36 -31 49 -58 58 -24 8 -38 21 -47 42 -14 34 -48 62 -75 62 -9
0 -29 19 -45 42 -20 30 -39 45 -65 53 -24 7 -45 22 -60 45 -17 26 -34 37 -65
44 -28 6 -46 18 -54 34 -15 26 -57 52 -88 52 -10 0 -35 16 -54 35 -27 27 -43
35 -71 35 -25 0 -38 6 -46 20 -14 27 -67 53 -96 47 -15 -3 -30 3 -41 16 -25
27 -75 47 -102 40 -16 -4 -31 2 -51 22 -25 24 -37 28 -76 26 -37 -1 -53 4 -72
21 -18 18 -35 23 -75 23 -34 0 -61 6 -80 19 -21 14 -38 17 -70 13 -31 -5 -53
-1 -84 14 -37 18 -48 19 -78 9 -28 -9 -39 -9 -57 4 -25 17 -85 21 -107 7 -10
-6 -25 -4 -44 6 -20 10 -42 13 -66 8 -44 -8 -74 -8 -126 0 -28 4 -46 1 -62 -9z
m-510 -435 c26 -27 47 -53 47 -56 0 -4 -12 -23 -27 -42 -38 -50 -39 -134 -1
-215 40 -85 129 -137 202 -117 38 11 109 82 148 149 42 73 71 181 60 224 -11
40 -6 49 49 90 46 34 55 33 79 -6 26 -42 25 -86 0 -113 -27 -29 -41 -120 -30
-189 17 -106 80 -188 179 -235 79 -37 203 -37 276 -1 66 32 129 91 177 165 34
52 39 66 37 113 -3 59 10 77 78 108 39 17 54 12 75 -24 31 -53 32 -89 4 -123
-36 -42 -49 -101 -44 -199 5 -104 28 -160 94 -230 125 -134 314 -140 452 -15
53 47 97 134 89 174 -5 25 -1 35 29 60 19 17 39 31 44 31 4 0 15 3 24 6 17 7
41 -33 51 -87 6 -30 2 -39 -28 -70 -53 -55 -82 -151 -82 -274 0 -113 15 -154
64 -180 77 -39 174 -24 248 40 49 42 73 89 73 144 0 36 4 43 28 52 15 6 58 13
95 16 l69 6 -257 -329 c-142 -181 -259 -330 -259 -331 -1 -1 -24 16 -52 38
-280 233 -857 477 -1410 598 -192 42 -351 61 -508 61 l-134 0 -6 153 c-3 83
-9 271 -12 416 -7 301 -12 290 79 192z m308 -866 c397 -52 930 -223 1299 -417
172 -90 370 -227 370 -256 0 -5 -9 -17 -19 -26 -19 -17 -22 -16 -94 33 -525
354 -1110 554 -1764 602 l-163 13 0 26 c0 15 3 30 7 33 12 13 248 7 364 -8z
m-639 -185 c99 -30 103 -35 87 -104 -11 -51 -15 -57 -33 -52 -43 12 -125 18
-151 12 -26 -7 -26 -8 -10 -26 19 -21 27 -17 -89 -35 -36 -6 -89 -41 -81 -55
3 -4 21 -11 40 -14 43 -8 43 -15 2 -41 -17 -11 -41 -35 -53 -52 l-22 -33 -22
52 c-18 43 -22 65 -18 125 l5 72 -29 6 c-15 4 -28 10 -28 15 0 11 130 77 197
101 31 10 69 19 86 19 25 0 28 2 17 15 -11 13 -9 15 13 15 14 0 54 -9 89 -20z
m463 -47 c11 -21 44 -71 73 -111 52 -73 52 -74 25 -68 -56 13 -171 77 -213
117 l-43 42 5 -41 c8 -55 46 -128 85 -162 l32 -28 -40 -7 c-94 -16 -196 18
-227 75 -18 34 -9 120 18 175 l22 45 122 0 121 0 20 -37z m149 21 c10 -4 146
-186 154 -206 6 -14 -45 10 -112 52 -63 40 -166 140 -166 162 0 10 96 3 124
-8z m211 -283 c25 -11 60 -31 78 -45 19 -14 39 -26 44 -26 6 0 34 16 63 35
110 74 212 81 330 24 51 -25 91 -58 185 -153 66 -66 144 -142 173 -169 29 -26
62 -66 72 -90 34 -74 21 -164 -27 -186 -28 -13 -109 -5 -119 11 -3 5 13 27 35
49 l40 40 -37 16 c-54 23 -100 12 -234 -56 -101 -52 -127 -61 -171 -61 -61 0
-129 28 -174 72 -33 32 -53 31 -53 -3 0 -33 16 -54 84 -108 37 -29 68 -64 74
-80 8 -22 15 -28 30 -24 29 7 49 -29 63 -113 l12 -73 28 15 c16 8 45 18 66 23
l38 8 -28 12 c-16 6 -39 11 -51 11 -20 0 -24 6 -29 48 -4 26 -9 59 -13 75 l-6
27 55 -6 c78 -9 138 2 190 37 44 29 47 29 80 15 46 -19 107 -75 162 -148 39
-52 45 -67 45 -108 0 -27 -4 -59 -9 -72 -9 -23 -137 -168 -149 -168 -4 0 -8
19 -9 43 -2 23 -12 64 -24 90 -18 44 -19 54 -8 98 17 67 1 85 -31 34 -25 -40
-73 -75 -105 -75 -17 -1 -15 -5 13 -29 37 -32 40 -41 12 -41 -22 0 -133 -40
-127 -46 2 -2 38 0 80 6 85 11 107 6 107 -20 0 -13 -11 -19 -46 -25 -80 -12
-158 -35 -202 -61 -50 -30 -51 -38 -1 -24 66 20 165 31 207 25 40 -6 43 -9 40
-33 -3 -26 -5 -27 -88 -33 -47 -4 -98 -10 -115 -14 -40 -10 -114 -48 -145 -73
l-25 -21 65 21 c70 22 246 35 268 20 10 -7 9 -18 -5 -56 -15 -40 -21 -46 -38
-39 -11 4 -65 7 -120 7 -92 0 -107 -3 -189 -37 -118 -49 -126 -48 -126 6 1 92
12 112 129 232 61 62 111 120 111 127 0 24 -31 108 -40 108 -4 0 -11 -11 -14
-25 -10 -40 -46 -51 -112 -35 -53 13 -61 12 -123 -10 -41 -15 -101 -26 -156
-30 -78 -6 -97 -11 -139 -38 -28 -18 -53 -32 -57 -32 -3 0 -23 11 -43 25 l-36
24 0 -47 c0 -26 6 -56 14 -67 7 -11 73 -49 146 -84 139 -69 160 -88 160 -150
0 -42 -56 -102 -123 -132 -74 -33 -172 -32 -247 2 -55 26 -120 74 -120 89 0 4
53 8 118 7 134 -2 194 15 96 27 -32 4 -100 16 -152 28 -74 17 -97 27 -109 45
-9 13 -13 26 -11 29 3 2 45 0 94 -6 104 -12 160 -13 150 -3 -4 4 -63 24 -132
44 -69 20 -128 40 -131 43 -7 7 -24 98 -19 103 2 2 32 -1 67 -7 78 -12 141
-13 119 -1 -8 4 -52 18 -97 31 -53 14 -83 28 -83 37 0 20 46 89 71 107 13 9
21 17 18 18 -2 2 -22 12 -44 23 -22 11 -50 36 -63 55 -13 19 -27 37 -33 38
-12 5 -12 -49 0 -80 6 -17 2 -45 -15 -98 -13 -41 -24 -86 -24 -100 0 -22 -6
-18 -66 40 -79 78 -108 134 -99 190 13 78 110 197 199 245 38 20 42 19 116
-28 30 -19 49 -22 128 -22 88 0 93 -1 87 -20 -4 -11 -9 -44 -12 -72 -5 -47 -8
-53 -29 -53 -12 0 -35 -5 -51 -11 l-28 -11 48 -13 c27 -7 53 -17 60 -24 19
-19 24 -13 31 46 9 74 42 151 58 135 18 -18 24 -15 38 19 7 17 41 54 74 81 69
57 88 85 79 116 -7 28 -14 28 -44 -4 -37 -40 -97 -66 -164 -71 -58 -5 -65 -2
-185 58 -102 51 -134 62 -175 63 -27 0 -60 -6 -72 -12 -22 -12 -22 -12 14 -46
43 -39 40 -62 -11 -72 -52 -9 -83 2 -102 37 -42 83 -3 187 103 273 38 30 101
91 142 136 137 151 233 205 349 196 34 -3 83 -14 107 -25z m-609 -113 c-28
-29 -96 -116 -151 -192 -107 -152 -198 -250 -251 -272 -45 -19 -47 -18 -27 12
l17 26 -54 -27 c-56 -29 -131 -57 -136 -52 -2 1 17 32 42 67 25 36 66 106 92
155 62 120 139 196 261 259 88 46 113 49 70 10 -11 -10 -26 -28 -31 -39 -11
-19 -11 -19 18 0 35 24 186 104 196 105 4 0 -17 -24 -46 -52z m1497 16 c39
-20 87 -47 105 -61 46 -35 49 -24 6 25 -34 40 -34 42 -10 32 100 -38 213 -117
265 -184 21 -28 55 -82 74 -121 35 -69 65 -118 115 -183 l25 -33 -29 7 c-16 4
-59 22 -96 41 -63 31 -84 33 -56 5 20 -20 4 -21 -39 -2 -59 26 -104 76 -230
251 -61 85 -135 178 -164 207 -29 28 -49 52 -46 52 4 0 40 -16 80 -36z m-2137
-191 l-16 -38 40 45 c28 32 39 40 40 27 0 -43 -38 -98 -139 -202 -60 -61 -111
-121 -115 -133 -13 -39 -26 -13 -26 49 0 84 17 116 118 223 50 52 94 104 98
117 8 22 9 21 12 -13 2 -20 -4 -53 -12 -75z m2893 -78 c50 -57 62 -89 62 -166
0 -39 -1 -73 -4 -75 -2 -2 -20 20 -40 49 -21 30 -66 82 -102 116 l-65 63 32
44 31 43 27 -19 c15 -11 42 -36 59 -55z m-2789 -335 c0 -5 -6 -10 -13 -10 -16
0 -113 -64 -156 -104 -48 -44 -109 -141 -126 -201 -8 -27 -25 -113 -39 -190
-20 -121 -50 -227 -59 -214 -2 2 0 94 4 204 7 205 12 233 58 322 47 93 112
142 240 180 89 26 91 26 91 13z m300 6 c0 -2 -24 -19 -54 -39 -70 -47 -177
-147 -219 -206 -48 -66 -84 -128 -67 -115 117 89 155 111 224 128 l28 7 -35
-43 c-34 -43 -97 -147 -97 -162 0 -5 18 8 39 27 40 36 99 72 107 64 2 -2 -9
-28 -26 -58 -40 -73 -69 -161 -79 -244 -5 -39 -7 -72 -5 -73 1 -2 14 18 28 46
23 44 123 149 133 138 2 -2 -3 -28 -11 -57 -9 -29 -19 -92 -22 -139 l-5 -85
36 65 c19 36 49 78 65 95 l30 29 -6 -80 c-8 -92 4 -277 16 -269 5 3 11 18 15
33 3 15 14 38 24 51 18 24 18 23 23 -90 4 -87 14 -148 43 -259 79 -311 54
-499 -91 -655 l-55 -60 5 40 c3 22 8 60 12 85 l6 45 -27 -25 -27 -25 7 88 c4
48 3 111 -1 140 l-7 52 -17 -75 c-17 -80 -56 -177 -67 -167 -3 4 -22 89 -43
189 l-36 183 -34 -65 -34 -65 -8 60 c-6 48 -101 374 -127 435 -3 8 -8 -39 -11
-105 -5 -111 -6 -118 -18 -90 -27 59 -54 189 -71 332 l-16 145 -33 -50 c-23
-37 -47 -57 -84 -76 -29 -14 -60 -26 -70 -26 -16 0 -16 2 1 33 35 59 80 204
110 354 16 81 37 168 46 193 38 108 148 226 259 279 71 35 246 82 246 67z
m2064 -23 c184 -45 330 -177 385 -346 11 -34 29 -113 41 -176 24 -129 61 -254
96 -323 28 -56 29 -58 9 -58 -40 0 -116 52 -149 101 l-34 50 -7 -73 c-15 -167
-61 -388 -86 -413 -5 -5 -9 33 -9 102 0 64 -4 114 -10 118 -6 3 -10 -5 -10
-19 0 -14 -25 -99 -55 -190 -30 -90 -58 -192 -61 -225 -4 -34 -10 -61 -15 -61
-4 0 -20 25 -35 57 -15 31 -29 52 -31 47 -2 -5 -19 -87 -38 -183 -19 -96 -37
-176 -39 -178 -14 -15 -75 156 -77 217 l0 25 -11 -25 c-5 -14 -8 -73 -6 -137
l4 -113 -24 23 -24 22 7 -65 c3 -36 9 -74 11 -85 9 -38 -108 98 -137 159 -41
87 -52 153 -46 286 3 88 13 149 41 260 25 96 40 182 45 255 l7 110 26 -53 c14
-29 29 -49 32 -44 12 19 18 247 8 290 -5 23 -6 42 -2 42 16 0 74 -76 99 -130
26 -54 26 -55 29 -23 3 29 -17 158 -34 221 -4 13 -2 22 5 22 22 0 101 -83 126
-133 l25 -51 0 40 c0 64 -35 185 -77 265 -21 41 -39 78 -42 82 -6 16 64 -25
111 -65 46 -38 48 -38 38 -12 -11 28 -52 92 -97 150 l-24 33 38 -11 c55 -15
127 -53 168 -89 20 -18 38 -30 40 -27 3 3 -13 34 -36 69 -52 81 -179 207 -247
245 -84 47 -66 51 72 17z m339 -22 c146 -63 216 -192 218 -399 0 -59 4 -145 9
-192 4 -47 6 -87 4 -89 -12 -13 -46 106 -69 239 -33 196 -65 271 -155 358 -34
33 -86 73 -116 89 -30 15 -54 31 -54 35 0 9 108 -18 163 -41z m-1243 -361 c0
-5 -8 -10 -19 -10 -10 0 -36 -14 -57 -31 -83 -66 -136 -76 -232 -44 -28 9 -61
15 -72 12 -11 -3 -20 -1 -20 3 0 15 72 32 110 26 45 -7 125 8 184 35 44 20
106 25 106 9z m8 -452 c7 -7 12 -25 12 -41 0 -24 -3 -28 -17 -22 -26 11 -28
10 -138 -14 -114 -26 -155 -40 -155 -52 0 -19 -21 -7 -30 17 -14 37 1 51 62
59 28 4 94 20 147 35 116 34 104 33 119 18z m-799 -488 c6 -36 13 -126 16
-200 4 -74 9 -146 12 -160 4 -23 7 -20 34 30 l30 55 -6 -40 c-26 -177 -15
-350 29 -487 l23 -69 -26 25 c-37 36 -90 126 -117 199 -32 90 -44 222 -47 536
l-2 273 22 -48 c12 -27 27 -78 32 -114z m1251 69 c-5 -46 -9 -190 -9 -319 2
-256 -9 -340 -57 -448 -23 -52 -103 -167 -110 -159 -2 2 5 32 16 66 39 131 48
335 20 466 -5 22 -7 41 -5 43 2 2 17 -20 34 -50 22 -37 31 -47 32 -33 1 11 3
29 4 40 1 11 5 83 9 160 4 77 14 168 22 203 13 61 41 128 50 120 2 -2 -1 -42
-6 -89z m-585 -213 c28 -7 89 -30 137 -50 108 -45 152 -47 172 -9 l14 27 12
-57 c23 -113 -25 -224 -120 -276 -36 -20 -48 -22 -71 -14 -22 9 -31 8 -40 -3
-21 -25 -132 -74 -169 -74 -41 0 -146 48 -175 80 -16 18 -19 18 -30 4 -17 -24
-64 -10 -114 33 -75 64 -103 153 -81 259 l12 58 14 -32 c16 -39 48 -42 126
-11 83 34 221 78 243 78 11 1 43 -5 70 -13z m-380 -647 c28 -54 95 -159 102
-159 2 0 1 28 -2 63 -4 34 -3 80 2 101 8 39 9 37 36 -70 14 -60 42 -139 60
-176 18 -38 30 -68 26 -68 -7 0 -49 39 -100 96 -15 16 -53 51 -84 79 -74 63
-115 145 -115 225 0 100 11 111 31 32 10 -38 30 -94 44 -123z m701 67 c-9 -76
-50 -149 -113 -204 -58 -49 -72 -63 -137 -131 -21 -23 -42 -41 -47 -41 -5 0 4
26 20 58 33 65 57 131 71 200 21 98 23 101 30 49 3 -26 3 -72 0 -102 -3 -30
-3 -55 1 -55 12 0 100 147 125 208 12 31 26 75 30 97 l7 40 10 -35 c5 -19 6
-57 3 -84z m1044 -251 c0 -35 -43 -46 -168 -44 -65 0 -125 5 -131 9 -8 4 3 15
31 29 36 18 61 21 156 21 92 0 112 -3 112 -15z"/>
<path d="M2479 4441 c-50 -51 -36 -136 28 -166 47 -23 95 -13 127 26 30 35 33
76 11 119 -19 37 -43 50 -95 50 -33 0 -48 -6 -71 -29z"/>
<path d="M3199 4345 c-76 -41 -85 -153 -18 -209 87 -74 209 -14 209 103 0 37
-6 49 -39 82 -33 34 -45 39 -82 39 -24 -1 -56 -7 -70 -15z"/>
<path d="M3839 3991 c-65 -65 -16 -181 77 -181 93 0 139 113 73 179 -25 25
-39 31 -76 31 -36 0 -50 -6 -74 -29z"/>
</g>
</svg>
